<svg xmlns="http://www.w3.org/2000/svg" xmlns:xlink="http://www.w3.org/1999/xlink" width="1080" zoomAndPan="magnify" viewBox="0 0 810 809.999993" height="1080" preserveAspectRatio="xMidYMid meet" version="1.0"><defs><clipPath id="3637fb5f6b"><path d="M 36.507812 376 L 83 376 L 83 458 L 36.507812 458 Z M 36.507812 376 " clip-rule="nonzero"/></clipPath><clipPath id="334c9aa0fa"><path d="M 179 376 L 269 376 L 269 490.851562 L 179 490.851562 Z M 179 376 " clip-rule="nonzero"/></clipPath><clipPath id="fabb5841f5"><path d="M 629 319.101562 L 773.757812 319.101562 L 773.757812 464 L 629 464 Z M 629 319.101562 " clip-rule="nonzero"/></clipPath></defs><g clip-path="url(#3637fb5f6b)"><path fill="#203040" d="M 36.53125 378.34375 L 54.226562 378.34375 L 54.226562 457.675781 L 36.53125 457.675781 Z M 82.917969 393.476562 C 77.179688 393.476562 72.238281 394.699219 68.09375 397.140625 C 64.054688 399.582031 60.8125 402.558594 58.371094 406.0625 C 55.925781 409.566406 54.226562 412.964844 53.269531 416.257812 L 53.109375 407.335938 C 53.214844 406.167969 53.589844 404.417969 54.226562 402.078125 C 54.863281 399.636719 55.820312 396.980469 57.09375 394.113281 C 58.476562 391.246094 60.28125 388.484375 62.515625 385.832031 C 64.851562 383.070312 67.667969 380.839844 70.960938 379.140625 C 74.363281 377.441406 78.347656 376.589844 82.917969 376.589844 Z M 82.917969 393.476562 " fill-opacity="1" fill-rule="nonzero"/></g><path fill="#203040" d="M 156.238281 431.550781 L 173.292969 431.550781 C 172.445312 436.96875 170.320312 441.800781 166.917969 446.046875 C 163.625 450.1875 159.109375 453.480469 153.371094 455.925781 C 147.632812 458.261719 140.777344 459.429688 132.808594 459.429688 C 123.773438 459.429688 115.699219 457.78125 108.578125 454.492188 C 101.460938 451.09375 95.882812 446.3125 91.84375 440.152344 C 87.804688 433.992188 85.785156 426.664062 85.785156 418.167969 C 85.785156 409.777344 87.75 402.449219 91.683594 396.183594 C 95.617188 389.917969 101.035156 385.085938 107.941406 381.6875 C 114.957031 378.289062 123.03125 376.589844 132.171875 376.589844 C 141.628906 376.589844 149.492188 378.289062 155.761719 381.6875 C 162.136719 384.980469 166.863281 389.972656 169.945312 396.664062 C 173.027344 403.246094 174.304688 411.585938 173.773438 421.675781 L 103.796875 421.675781 C 104.328125 426.132812 105.761719 430.171875 108.101562 433.78125 C 110.546875 437.285156 113.839844 440.046875 117.984375 442.066406 C 122.128906 443.976562 126.964844 444.933594 132.488281 444.933594 C 138.652344 444.933594 143.804688 443.710938 147.949219 441.269531 C 152.199219 438.824219 154.964844 435.585938 156.238281 431.550781 Z M 131.691406 390.929688 C 124.464844 390.929688 118.515625 392.734375 113.839844 396.34375 C 109.164062 399.847656 106.136719 404.363281 104.753906 409.886719 L 155.921875 409.886719 C 155.496094 403.9375 153.105469 399.316406 148.746094 396.027344 C 144.390625 392.628906 138.707031 390.929688 131.691406 390.929688 Z M 131.691406 390.929688 " fill-opacity="1" fill-rule="nonzero"/><g clip-path="url(#334c9aa0fa)"><path fill="#203040" d="M 218.5625 445.410156 C 211.125 445.410156 204.375 444.082031 198.320312 441.425781 C 192.367188 438.773438 187.640625 434.894531 184.132812 429.796875 C 180.734375 424.699219 179.03125 418.59375 179.03125 411.476562 C 179.03125 404.363281 180.679688 398.203125 183.972656 393 C 187.375 387.796875 192.050781 383.757812 198 380.890625 C 204.058594 378.023438 210.910156 376.589844 218.5625 376.589844 C 220.792969 376.589844 222.917969 376.75 224.9375 377.070312 C 227.0625 377.386719 229.082031 377.8125 230.996094 378.34375 L 268.132812 378.503906 L 268.132812 393.316406 C 263.035156 393.425781 257.878906 392.734375 252.671875 391.246094 C 247.570312 389.652344 243.054688 388.007812 239.125 386.308594 L 238.644531 385.351562 C 242.257812 387.15625 245.5 389.386719 248.371094 392.042969 C 251.34375 394.59375 253.683594 397.511719 255.382812 400.804688 C 257.082031 404.097656 257.933594 407.8125 257.933594 411.957031 C 257.933594 418.964844 256.234375 424.964844 252.832031 429.957031 C 249.539062 434.949219 244.914062 438.773438 238.964844 441.425781 C 233.121094 444.082031 226.320312 445.410156 218.5625 445.410156 Z M 244.066406 490.015625 L 244.066406 486.351562 C 244.066406 481.148438 242.523438 477.484375 239.441406 475.359375 C 236.363281 473.234375 232.058594 472.171875 226.53125 472.171875 L 205.011719 472.171875 C 200.761719 472.171875 197.097656 471.800781 194.015625 471.058594 C 191.039062 470.421875 188.648438 469.414062 186.84375 468.03125 C 185.035156 466.757812 183.707031 465.21875 182.859375 463.410156 C 182.007812 461.710938 181.582031 459.800781 181.582031 457.675781 C 181.582031 453.429688 182.859375 450.242188 185.40625 448.117188 C 188.066406 445.996094 191.519531 444.613281 195.769531 443.976562 C 200.125 443.339844 204.695312 443.234375 209.476562 443.65625 L 218.5625 445.410156 C 212.292969 445.621094 207.511719 446.207031 204.214844 447.164062 C 201.027344 448.011719 199.433594 449.765625 199.433594 452.417969 C 199.433594 454.011719 200.074219 455.289062 201.347656 456.242188 C 202.621094 457.199219 204.429688 457.675781 206.765625 457.675781 L 229.402344 457.675781 C 235.882812 457.675781 241.566406 458.421875 246.457031 459.90625 C 251.34375 461.5 255.117188 464.101562 257.773438 467.710938 C 260.535156 471.429688 261.917969 476.472656 261.917969 482.847656 L 261.917969 490.015625 Z M 218.5625 431.550781 C 222.8125 431.550781 226.585938 430.753906 229.878906 429.160156 C 233.171875 427.566406 235.777344 425.285156 237.691406 422.3125 C 239.601562 419.335938 240.558594 415.726562 240.558594 411.476562 C 240.558594 407.230469 239.601562 403.566406 237.691406 400.488281 C 235.777344 397.40625 233.171875 395.070312 229.878906 393.476562 C 226.585938 391.882812 222.8125 391.085938 218.5625 391.085938 C 214.417969 391.085938 210.644531 391.882812 207.246094 393.476562 C 203.949219 395.070312 201.347656 397.40625 199.433594 400.488281 C 197.523438 403.460938 196.566406 407.125 196.566406 411.476562 C 196.566406 415.726562 197.523438 419.335938 199.433594 422.3125 C 201.347656 425.285156 203.949219 427.566406 207.246094 429.160156 C 210.539062 430.753906 214.3125 431.550781 218.5625 431.550781 Z M 218.5625 431.550781 " fill-opacity="1" fill-rule="nonzero"/></g><path fill="#203040" d="M 358.679688 457.675781 L 340.988281 457.675781 L 340.988281 378.34375 L 358.679688 378.34375 Z M 341.945312 419.921875 L 342.105469 425.019531 C 341.890625 426.398438 341.414062 428.472656 340.671875 431.230469 C 340.035156 433.992188 338.914062 437.019531 337.320312 440.3125 C 335.835938 443.5 333.816406 446.578125 331.265625 449.550781 C 328.820312 452.417969 325.742188 454.808594 322.023438 456.722656 C 318.300781 458.527344 313.785156 459.429688 308.472656 459.429688 C 304.644531 459.429688 300.769531 458.898438 296.835938 457.835938 C 293.011719 456.878906 289.503906 455.234375 286.316406 452.898438 C 283.234375 450.5625 280.738281 447.375 278.824219 443.339844 C 276.910156 439.304688 275.957031 434.207031 275.957031 428.046875 L 275.957031 378.34375 L 293.648438 378.34375 L 293.648438 424.699219 C 293.648438 429.691406 294.445312 433.621094 296.039062 436.488281 C 297.738281 439.25 300.078125 441.214844 303.050781 442.382812 C 306.027344 443.550781 309.480469 444.136719 313.414062 444.136719 C 319.046875 444.136719 323.828125 442.863281 327.761719 440.3125 C 331.691406 437.761719 334.824219 434.628906 337.164062 430.914062 C 339.609375 427.089844 341.203125 423.425781 341.945312 419.921875 Z M 341.945312 419.921875 " fill-opacity="1" fill-rule="nonzero"/><path fill="#203040" d="M 404.742188 459.429688 C 397.519531 459.429688 390.875 457.675781 384.820312 454.171875 C 378.867188 450.667969 374.085938 445.835938 370.472656 439.675781 C 366.964844 433.410156 365.214844 426.242188 365.214844 418.167969 C 365.214844 409.886719 367.019531 402.664062 370.632812 396.503906 C 374.246094 390.238281 379.132812 385.351562 385.296875 381.847656 C 391.460938 378.34375 398.367188 376.589844 406.019531 376.589844 C 414.519531 376.589844 421.269531 378.449219 426.261719 382.167969 C 431.253906 385.882812 434.816406 390.875 436.941406 397.140625 C 439.066406 403.40625 440.128906 410.417969 440.128906 418.167969 C 440.128906 422.523438 439.492188 427.144531 438.214844 432.027344 C 436.941406 436.808594 434.921875 441.269531 432.160156 445.410156 C 429.5 449.550781 425.890625 452.949219 421.320312 455.605469 C 416.855469 458.15625 411.332031 459.429688 404.742188 459.429688 Z M 410.164062 444.773438 C 416.113281 444.773438 421.160156 443.65625 425.304688 441.425781 C 429.558594 439.089844 432.746094 435.90625 434.867188 431.871094 C 437.101562 427.832031 438.214844 423.265625 438.214844 418.167969 C 438.214844 412.539062 437.101562 407.761719 434.867188 403.832031 C 432.636719 399.796875 429.449219 396.714844 425.304688 394.59375 C 421.160156 392.363281 416.113281 391.246094 410.164062 391.246094 C 401.664062 391.246094 395.074219 393.742188 390.398438 398.734375 C 385.722656 403.726562 383.382812 410.203125 383.382812 418.167969 C 383.382812 423.375 384.5 427.992188 386.730469 432.027344 C 389.070312 436.0625 392.257812 439.199219 396.296875 441.425781 C 400.332031 443.65625 404.953125 444.773438 410.164062 444.773438 Z M 438.214844 378.34375 L 456.070312 378.34375 L 456.070312 457.675781 L 439.492188 457.675781 C 439.492188 457.675781 439.382812 456.667969 439.171875 454.648438 C 438.960938 452.632812 438.746094 450.1875 438.535156 447.320312 C 438.324219 444.347656 438.214844 441.535156 438.214844 438.878906 Z M 438.214844 378.34375 " fill-opacity="1" fill-rule="nonzero"/><path fill="#203040" d="M 466.652344 378.34375 L 484.34375 378.34375 L 484.34375 457.675781 L 466.652344 457.675781 Z M 513.035156 393.476562 C 507.296875 393.476562 502.355469 394.699219 498.210938 397.140625 C 494.175781 399.582031 490.929688 402.558594 488.488281 406.0625 C 486.042969 409.566406 484.34375 412.964844 483.386719 416.257812 L 483.226562 407.335938 C 483.335938 406.167969 483.707031 404.417969 484.34375 402.078125 C 484.980469 399.636719 485.9375 396.980469 487.214844 394.113281 C 488.59375 391.246094 490.402344 388.484375 492.632812 385.832031 C 494.972656 383.070312 497.785156 380.839844 501.082031 379.140625 C 504.480469 377.441406 508.464844 376.589844 513.035156 376.589844 Z M 513.035156 393.476562 " fill-opacity="1" fill-rule="nonzero"/><path fill="#203040" d="M 555.433594 459.429688 C 548.101562 459.429688 541.40625 457.675781 535.351562 454.171875 C 529.398438 450.667969 524.671875 445.835938 521.164062 439.675781 C 517.65625 433.410156 515.902344 426.242188 515.902344 418.167969 C 515.902344 409.886719 517.605469 402.664062 521.003906 396.503906 C 524.511719 390.238281 529.1875 385.351562 535.03125 381.847656 C 540.980469 378.34375 547.78125 376.589844 555.433594 376.589844 C 562.128906 376.589844 567.761719 377.707031 572.328125 379.9375 C 576.898438 382.058594 580.511719 385.035156 583.167969 388.855469 C 585.828125 392.574219 587.738281 396.929688 588.90625 401.921875 C 590.183594 406.910156 590.820312 412.328125 590.820312 418.167969 C 590.820312 422.523438 590.183594 427.144531 588.90625 432.027344 C 587.632812 436.808594 585.613281 441.269531 582.851562 445.410156 C 580.191406 449.550781 576.582031 452.949219 572.011719 455.605469 C 567.546875 458.15625 562.023438 459.429688 555.433594 459.429688 Z M 560.855469 444.773438 C 566.804688 444.773438 571.851562 443.65625 575.996094 441.425781 C 580.246094 439.089844 583.433594 435.90625 585.558594 431.871094 C 587.792969 427.832031 588.90625 423.265625 588.90625 418.167969 C 588.90625 412.539062 587.792969 407.761719 585.558594 403.832031 C 583.328125 399.796875 580.140625 396.664062 575.996094 394.433594 C 571.851562 392.203125 566.804688 391.085938 560.855469 391.085938 C 552.351562 391.085938 545.761719 393.636719 541.089844 398.734375 C 536.414062 403.726562 534.074219 410.203125 534.074219 418.167969 C 534.074219 423.375 535.191406 427.992188 537.421875 432.027344 C 539.761719 436.0625 542.949219 439.199219 546.984375 441.425781 C 551.023438 443.65625 555.644531 444.773438 560.855469 444.773438 Z M 588.90625 346.480469 L 606.757812 346.480469 L 606.757812 457.675781 L 590.183594 457.675781 C 589.96875 455.234375 589.703125 452.207031 589.386719 448.597656 C 589.066406 444.984375 588.90625 441.746094 588.90625 438.878906 Z M 588.90625 346.480469 " fill-opacity="1" fill-rule="nonzero"/><g clip-path="url(#fabb5841f5)"><path fill="#e51636" d="M 712.351562 440.117188 L 722.359375 463.472656 L 659.171875 463.472656 C 657.214844 463.472656 655.304688 463.28125 653.453125 462.921875 L 663.191406 440.117188 Z M 743.847656 319.101562 C 760.355469 319.101562 773.734375 332.476562 773.734375 348.972656 L 773.734375 433.601562 C 773.734375 442.707031 769.652344 450.851562 763.226562 456.328125 L 723.925781 363.90625 L 706.210938 363.90625 L 748.402344 463.125 C 746.917969 463.351562 745.398438 463.472656 743.847656 463.472656 L 741.472656 463.472656 L 697.191406 363.90625 L 678.234375 363.90625 L 638.101562 454.785156 C 632.65625 449.375 629.285156 441.882812 629.285156 433.601562 L 629.285156 348.972656 C 629.285156 332.476562 642.664062 319.101562 659.171875 319.101562 Z M 705.960938 425.214844 L 669.554688 425.214844 L 687.71875 382.667969 Z M 705.960938 425.214844 " fill-opacity="1" fill-rule="nonzero"/></g></svg>